<svg width="1920" height="1080" xmlns="http://www.w3.org/2000/svg"><defs><path id="a" d="M273.319 315.773h349.335v368.41H273.319z"/></defs><g style="font-size:300px;white-space:pre;shape-inside:url(#a);display:inline;stroke-width:1.00157"><path d="M298.807 566.324q-.733-.147-2.198-.586-1.318-.586-4.101-1.904-2.344-1.026-4.102-5.86-1.611-4.98-3.515-16.406-1.319-7.031-2.051-15.38-.733-8.35-1.465-24.464-1.318-23.73-1.318-37.793v-4.687q.146-14.502 2.343-26.22 1.465-9.376 2.784-13.184 1.318-3.956 3.515-5.86l1.465-1.465 4.102 1.465q1.757.44 3.222 1.172 1.612.586 2.198.879l1.171.586q.733.146 1.026.146 1.758.147 2.93 4.834.439 1.172.439 5.127 0 3.809-.44 10.4-.292 7.764-.292 17.725 0 15.674.732 36.475 1.172 33.984 3.223 54.2.146 1.61.146 2.929v1.172q0 1.757-.44 3.515-.439 1.319-.732 2.783-.146 1.319-.146 2.051 0 .733-.147 1.319-.146.586-.44.732-.292.147-.439.879-.146.586-.146 1.318v.293q0 4.102-3.809 4.102h-2.05q-.88-.147-1.465-.293zm53.906-74.414-.293 3.222q-.879 9.083-1.172 13.916-.293 3.663-.293 5.713v2.198q0 1.464.44 2.636.878 2.051 1.025 18.31 0 7.911-.147 12.599-.146 4.54-.586 7.03-.439 2.491-1.464 4.542-.586 1.172-.88 2.197-.292 1.025-.292 1.318 0 .44-.147.88-.146.292-.44.439-.146.146-.439.732-.293.44-.44 1.172-.731 3.516-3.661 3.516-1.465 0-3.37-.88-1.025-.292-2.05-.732-.879-.586-1.318-1.025-.44-.44-1.172-.879-.586-.44-1.172-.732-2.197-1.172-4.102-5.274-1.904-4.101-2.783-9.228-1.318-7.764-1.465-15.381v-1.904q0-7.032.88-16.7 1.024-14.355 2.343-20.361 1.318-6.006 4.101-9.668 1.905-3.223 3.955-3.516h.44q2.05 0 6.738 1.905l.586.293q.44 0 .586.146.147 0 1.025.586 1.026.44 2.344 1.172zm5.127-51.563 1.758 1.758-3.223 8.643q-1.465 3.662-2.344 6.299-.879 2.636-.879 2.93 0 .732-1.172 2.782-1.025 1.905-2.636 3.809-2.93 3.809-4.688 5.42-1.465 1.465-2.636 1.465l-.733-.147q-.732-.146-2.49-1.611-4.98-3.955-6.299-8.496-.44-1.904-.44-4.248 0-3.076 1.026-8.643 1.025-5.713 3.955-11.865 1.758-3.516 4.248-6.152 2.637-2.784 4.248-2.784 1.319 0 3.809 1.612 2.636 1.611 4.687 3.662 2.051 1.904 2.051 3.076 0 .293.44 1.025.585.733 1.318 1.465zm109.57 63.282q4.395 5.42 5.127 10.4.147 1.172.147 2.637 0 4.248-1.612 10.254-1.758 7.324-3.076 10.693-1.172 3.37-2.783 5.273-3.662 4.541-17.578 11.426-16.992 8.79-33.692 8.79h-8.203q-2.49-.147-3.222-.294-8.643-1.611-16.553-5.566-14.356-6.738-16.846-21.826-1.025-4.541-1.025-7.471v-.879q0-2.49.732-5.713 2.49-11.426 12.598-22.119 11.426-11.865 23.584-15.38 3.808-1.173 8.203-1.173 1.318 0 4.834.293 3.662.293 13.184 2.783 28.71 7.178 36.181 17.872zm-40.869 31.494q4.834-1.465 9.668-3.955 4.98-2.637 7.91-5.127 2.344-2.051 2.344-3.076 0-.293-.147-.586-1.757-2.051-12.744-7.91l-6.299-3.37-5.127 1.465q-9.375 2.637-16.845 7.764-2.49 1.758-5.127 3.808-2.49 2.051-4.248 3.809-1.612 1.611-1.612 2.197 0 .88 1.758 2.93 1.905 1.904 4.102 3.37 1.611 1.024 2.93 1.317 1.318.293 4.394.293 2.05 0 4.834-.293 2.93-.293 5.273-.586 2.198-.439 4.688-1.025 2.637-.586 4.248-1.025zm80.419 28.417q-1.317-.292-2.782-.732-1.319-.44-2.051-.879-.586-.44-1.318-.732-.586-.293-.733-.293-1.318 0-3.222-1.758-1.905-1.904-3.223-4.101-4.248-8.643-6.299-22.559-1.904-14.063-1.904-23.145 0-4.54.44-8.496 1.171-9.96 4.394-15.966 1.758-3.663 3.076-4.688 1.465-1.172 3.076-1.172.586 0 1.172.147 1.172.146 2.05.44 1.026.292 1.32.439.292.293 1.17.586.88.146 1.612.146.88 0 1.465.146.733.147.733.293 0 .293.293.44.439.146 1.171.146.586 0 1.026.147.44.146.44.293 0 .146.585.586.733.293 1.758.586t1.904.879q1.026.44 1.319.732.44.44.732.586h.732q.147 0 .147 4.248.146 4.248 0 11.133l-.44 15.674 3.956-4.248q1.757-1.758 4.394-4.102 2.783-2.49 5.274-4.394 2.343-1.758 5.127-3.956 2.783-2.343 4.54-3.955 3.077-2.783 4.542-3.515 1.464-.733 2.636-.733.733 0 1.319.147 15.234 2.93 21.386 8.056 4.248 3.956 11.28 15.82 2.783 4.981 6.884 8.057 4.102 3.077 12.745 6.592 2.05.733 3.222 1.465 1.319.732 1.465.879l.147 1.318-.147 1.319q-.146 1.465-.879 3.955-1.172 4.834-3.808 6.152-2.49 1.318-7.178 1.318-1.465 0-3.076-.146-10.108-.732-20.801-5.86-6.738-3.222-10.84-7.177-3.955-3.955-7.764-11.28-.879-1.757-1.757-2.93-.88-1.317-1.172-1.317-.586 0-2.49 1.318-1.905 1.318-4.102 3.223-2.05 1.757-3.662 3.369-8.643 9.375-15.381 24.902-3.955 8.936-6.299 10.986-2.197 2.051-4.98 2.051-1.465 0-3.223-.44z" style="font-family:Kikyo;-inkscape-font-specification:Kikyo;fill:#fff;fill-opacity:1" aria-label="lion" transform="matrix(5.81173 0 0 6.3236 -1602.581 -2569.607)"/></g></svg>